<?xml version="1.0" encoding="UTF-8" standalone="no"?><!DOCTYPE svg PUBLIC "-//W3C//DTD SVG 1.1//EN" "http://www.w3.org/Graphics/SVG/1.1/DTD/svg11.dtd"><svg width="100%" height="100%" viewBox="0 0 1042 1042" version="1.1" xmlns="http://www.w3.org/2000/svg" xmlns:xlink="http://www.w3.org/1999/xlink" xml:space="preserve" xmlns:serif="http://www.serif.com/" style="fill-rule:evenodd;clip-rule:evenodd;stroke-linejoin:round;stroke-miterlimit:2;"><g><path d="M520.833,63.659c-258.849,0 -468.75,209.854 -468.75,468.75c0,207.098 134.311,382.806 320.56,444.788c23.427,4.339 32.027,-10.169 32.027,-22.55c0,-11.17 -0.434,-48.103 -0.636,-87.271c-130.407,28.355 -157.924,-55.307 -157.924,-55.307c-21.323,-54.173 -52.046,-68.588 -52.046,-68.588c-42.53,-29.093 3.205,-28.495 3.205,-28.495c47.071,3.307 71.856,48.313 71.856,48.313c41.808,71.653 109.658,50.936 136.407,38.959c4.215,-30.289 16.355,-50.975 29.761,-62.681c-104.116,-11.845 -213.565,-52.046 -213.565,-231.658c0,-51.169 18.312,-92.993 48.298,-125.819c-4.867,-11.807 -20.912,-59.483 4.548,-124.05c0,0 39.363,-12.59 128.932,48.057c37.391,-10.386 77.491,-15.595 117.327,-15.781c39.836,0.186 79.968,5.395 117.428,15.781c89.469,-60.647 128.777,-48.057 128.777,-48.057c25.515,64.567 9.47,112.243 4.603,124.05c30.056,32.826 48.235,74.65 48.235,125.819c0,180.046 -109.658,219.681 -214.038,231.285c16.813,14.547 31.795,43.073 31.795,86.806c0,62.72 -0.536,113.198 -0.536,128.637c0,12.482 8.43,27.091 32.19,22.495c186.156,-62.052 320.296,-237.697 320.296,-444.733c0,-258.896 -209.869,-468.75 -468.75,-468.75" style="fill:#181717;"/><path d="M229.626,736.675c-1.033,2.337 -4.696,3.036 -8.034,1.436c-3.408,-1.536 -5.31,-4.711 -4.207,-7.048c1.009,-2.39 4.673,-3.058 8.072,-1.459c3.4,1.529 5.341,4.735 4.169,7.071" style="fill:#181717;fill-rule:nonzero;"/><path d="M248.615,757.855c-2.236,2.072 -6.614,1.11 -9.571,-2.166c-3.074,-3.268 -3.641,-7.646 -1.374,-9.741c2.305,-2.073 6.544,-1.103 9.61,2.165c3.074,3.307 3.671,7.638 1.335,9.742" style="fill:#181717;fill-rule:nonzero;"/><path d="M267.096,784.848c-2.872,2.003 -7.576,0.132 -10.479,-4.036c-2.872,-4.176 -2.872,-9.175 0.07,-11.178c2.903,-2.002 7.537,-0.194 10.479,3.936c2.864,4.238 2.864,9.237 -0.07,11.278" style="fill:#181717;fill-rule:nonzero;"/><path d="M292.414,810.933c-2.569,2.833 -8.041,2.072 -12.047,-1.801c-4.098,-3.773 -5.239,-9.136 -2.67,-11.97c2.608,-2.841 8.112,-2.041 12.148,1.794c4.067,3.772 5.302,9.175 2.569,11.977" style="fill:#181717;fill-rule:nonzero;"/><path d="M327.345,826.078c-1.141,3.671 -6.404,5.333 -11.714,3.772c-5.301,-1.607 -8.771,-5.899 -7.7,-9.609c1.102,-3.695 6.396,-5.434 11.745,-3.765c5.293,1.599 8.771,5.868 7.669,9.602" style="fill:#181717;fill-rule:nonzero;"/><path d="M365.709,828.883c0.132,3.866 -4.37,7.072 -9.943,7.141c-5.605,0.125 -10.146,-3.004 -10.208,-6.807c0,-3.905 4.409,-7.072 10.006,-7.172c5.573,-0.109 10.145,3.004 10.145,6.838" style="fill:#181717;fill-rule:nonzero;"/><path d="M401.405,822.811c0.667,3.764 -3.206,7.638 -8.74,8.67c-5.442,1.001 -10.48,-1.335 -11.17,-5.069c-0.676,-3.865 3.26,-7.739 8.701,-8.74c5.542,-0.963 10.502,1.304 11.209,5.139" style="fill:#181717;fill-rule:nonzero;"/></g></svg>