<?xml version="1.0" encoding="UTF-8" standalone="no"?><!DOCTYPE svg PUBLIC "-//W3C//DTD SVG 1.1//EN" "http://www.w3.org/Graphics/SVG/1.1/DTD/svg11.dtd"><svg width="100%" height="100%" viewBox="0 0 8684 8684" version="1.1" xmlns="http://www.w3.org/2000/svg" xmlns:xlink="http://www.w3.org/1999/xlink" xml:space="preserve" xmlns:serif="http://www.serif.com/" style="fill-rule:evenodd;clip-rule:evenodd;stroke-linecap:round;stroke-linejoin:round;stroke-miterlimit:2;"><path d="M340.692,3544.58c38.354,45.825 191.937,64.792 230.133,106.054c12.188,13.329 22.833,94.179 30.892,107.688c17.97,30.237 30.77,328.995 38.016,372.891c157.417,954.221 192.85,1084.29 592.275,1294.67c191.2,100.792 584.346,168.388 978.171,168.388c307.1,0 850.867,24.025 1219.75,-168.388c537.429,-280.437 637.492,-1498.32 646.892,-1547.03c0.533,-4.917 0,-144.867 263.454,-144.867l0,-224.133c-31.091,0.004 -62.191,8.088 -83.379,3.788c-29.4,-6.034 -147.254,38.233 -180.075,30.933c-81.179,-17.842 -147.958,-127.725 -252.887,-181.733c-58.875,-30.238 -125.405,-63.059 -190.159,-92.075c-278.866,-124.875 -1151.17,-171.459 -1151.17,-171.459c-696.67,-49.85 -1339.3,46.071 -1725.81,92.559c-150.546,18.108 -404.833,-9.2 -416.108,183.8c-2.434,39.358 -36.138,125.733 0,168.908Zm559.279,-34.721c117.471,-179.746 519.842,-202.317 1139.46,-202.317c137.342,0 415.171,5.25 599.425,15.942c1050.73,61.283 1185.59,266.5 1215.7,341.063c1.625,3.675 58.929,783.616 -349.066,1469.51c-194.317,326.513 -916.396,280.929 -1295.31,291.829c-334.537,9.621 -676.629,-40.87 -978.171,-226.429c-263.379,-162.079 -295.725,-786.646 -351.062,-1068.25c-39.958,-203.325 -51.129,-513.871 19.025,-621.354Zm7439.92,34.721c-38.359,45.825 -191.942,64.792 -230.134,106.054c-12.191,13.329 -22.837,94.179 -30.896,107.688c-17.97,30.237 -30.766,328.995 -38.016,372.891c-157.417,954.221 -192.846,1084.29 -592.275,1294.67c-191.2,100.792 -584.342,168.388 -978.171,168.388c-307.1,0 -850.863,24.025 -1219.75,-168.388c-537.429,-280.437 -637.488,-1498.32 -646.892,-1547.03c-0.533,-4.917 0,-144.867 -263.45,-144.867l0,-224.133c31.088,0.004 62.192,8.088 83.379,3.788c29.4,-6.034 147.25,38.233 180.071,30.933c81.179,-17.842 147.963,-127.725 252.888,-181.733c58.875,-30.238 125.404,-63.059 190.158,-92.075c278.867,-124.875 1151.17,-171.459 1151.17,-171.459c696.671,-49.85 1339.3,46.071 1725.81,92.559c150.546,18.108 404.833,-9.2 416.113,183.8c2.433,39.358 36.137,125.733 -0.001,168.908Zm-559.283,-34.721c-117.471,-179.746 -519.842,-202.317 -1139.46,-202.317c-137.342,0 -415.171,5.25 -599.425,15.942c-1050.73,61.283 -1185.59,266.5 -1215.7,341.063c-1.621,3.675 -58.929,783.616 349.066,1469.51c194.317,326.513 916.396,280.929 1295.31,291.829c334.541,9.621 676.629,-40.87 978.171,-226.429c263.383,-162.079 295.725,-786.646 351.066,-1068.25c39.959,-203.325 51.125,-513.871 -19.029,-621.354Z" style="fill-rule:nonzero;stroke:#000;stroke-width:8.33px;"/></svg>