<?xml version="1.0" encoding="UTF-8" standalone="no"?><!DOCTYPE svg PUBLIC "-//W3C//DTD SVG 1.1//EN" "http://www.w3.org/Graphics/SVG/1.1/DTD/svg11.dtd"><svg width="100%" height="100%" viewBox="0 0 2084 2084" version="1.1" xmlns="http://www.w3.org/2000/svg" xmlns:xlink="http://www.w3.org/1999/xlink" xml:space="preserve" xmlns:serif="http://www.serif.com/" style="fill-rule:evenodd;clip-rule:evenodd;stroke-linejoin:round;stroke-miterlimit:2;"><path d="M81.766,850.698c9.205,10.998 46.065,15.55 55.232,25.453c2.925,3.199 5.48,22.603 7.414,25.845c4.313,7.257 7.385,78.959 9.124,89.494c37.78,229.013 46.284,260.229 142.146,310.722c45.888,24.19 140.243,40.413 234.761,40.413c73.704,0 204.208,5.766 292.741,-40.413c128.983,-67.305 152.998,-359.596 155.254,-371.287c0.128,-1.18 0,-34.768 63.229,-34.768l0,-53.792c-7.462,0.001 -14.926,1.941 -20.011,0.909c-7.056,-1.448 -35.341,9.176 -43.218,7.424c-19.483,-4.282 -35.51,-30.654 -60.693,-43.616c-14.13,-7.257 -30.097,-15.134 -45.638,-22.098c-66.928,-29.97 -276.281,-41.15 -276.281,-41.15c-167.201,-11.964 -321.432,11.057 -414.194,22.214c-36.131,4.346 -97.16,-2.208 -99.866,44.112c-0.584,9.446 -8.673,30.176 0,40.538Zm134.227,-8.333c28.193,-43.139 124.762,-48.556 273.471,-48.556c32.962,0 99.641,1.26 143.862,3.826c252.175,14.708 284.541,63.96 291.767,81.855c0.39,0.882 14.143,188.068 -83.776,352.683c-46.636,78.363 -219.935,67.423 -310.874,70.039c-80.289,2.309 -162.391,-9.809 -234.761,-54.343c-63.211,-38.899 -70.974,-188.795 -84.255,-256.379c-9.59,-48.798 -12.271,-123.329 4.566,-149.125Zm1785.58,8.333c-9.206,10.998 -46.066,15.55 -55.232,25.453c-2.926,3.199 -5.481,22.603 -7.415,25.845c-4.313,7.257 -7.384,78.959 -9.124,89.494c-37.78,229.013 -46.283,260.229 -142.146,310.722c-45.888,24.19 -140.242,40.413 -234.761,40.413c-73.704,0 -204.207,5.766 -292.741,-40.413c-128.983,-67.305 -152.997,-359.596 -155.254,-371.287c-0.128,-1.18 0,-34.768 -63.228,-34.768l0,-53.792c7.461,0.001 14.926,1.941 20.011,0.909c7.056,-1.448 35.34,9.176 43.217,7.424c19.483,-4.282 35.511,-30.654 60.693,-43.616c14.13,-7.257 30.097,-15.134 45.638,-22.098c66.928,-29.97 276.281,-41.15 276.281,-41.15c167.201,-11.964 321.432,11.057 414.194,22.214c36.131,4.346 97.16,-2.208 99.867,44.112c0.584,9.446 8.673,30.176 0,40.538Zm-134.228,-8.333c-28.193,-43.139 -124.762,-48.556 -273.471,-48.556c-32.962,0 -99.641,1.26 -143.862,3.826c-252.175,14.708 -284.541,63.96 -291.767,81.855c-0.389,0.882 -14.143,188.068 83.776,352.683c46.636,78.363 219.935,67.423 310.874,70.039c80.29,2.309 162.391,-9.809 234.761,-54.343c63.212,-38.899 70.974,-188.795 84.256,-256.379c9.59,-48.798 12.27,-123.329 -4.567,-149.125Z" style="fill-rule:nonzero;"/></svg>