<?xml version="1.0" encoding="UTF-8" standalone="no"?><!DOCTYPE svg PUBLIC "-//W3C//DTD SVG 1.1//EN" "http://www.w3.org/Graphics/SVG/1.1/DTD/svg11.dtd"><svg width="100%" height="100%" viewBox="0 0 2084 2084" version="1.1" xmlns="http://www.w3.org/2000/svg" xmlns:xlink="http://www.w3.org/1999/xlink" xml:space="preserve" xmlns:serif="http://www.serif.com/" style="fill-rule:evenodd;clip-rule:evenodd;stroke-linejoin:round;stroke-miterlimit:2;"><path d="M1809.56,104.167l-1535.78,0c-93.672,0 -169.609,75.937 -169.609,169.609l0,1535.78c0,93.676 75.937,169.614 169.609,169.614l1535.78,0c93.676,0 169.614,-75.938 169.614,-169.614l0,-1535.78c0,-93.672 -75.938,-169.609 -169.609,-169.609Zm-1125.19,1619c0,27.261 -22.097,49.359 -49.358,49.359l-210.108,0c-27.262,0 -49.359,-22.098 -49.359,-49.359l0,-880.764c0,-27.261 22.097,-49.358 49.359,-49.358l210.108,0c27.261,0 49.358,22.097 49.358,49.358l0,880.764Zm-154.412,-1013.15c-110.238,0 -199.605,-89.366 -199.605,-199.604c0,-110.237 89.367,-199.604 199.605,-199.604c110.237,0 199.604,89.367 199.604,199.604c0,110.238 -89.362,199.604 -199.604,199.604Zm1252.43,1017.12c0,25.062 -20.321,45.383 -45.383,45.383l-225.461,0c-25.063,0 -45.383,-20.321 -45.383,-45.383l0,-413.128c0,-61.63 18.077,-270.064 -161.059,-270.064c-138.951,0 -167.135,142.667 -172.794,206.692l0,476.5c0,25.062 -20.316,45.383 -45.383,45.383l-218.06,0c-25.062,0 -45.383,-20.321 -45.383,-45.383l0,-888.715c0,-25.063 20.321,-45.383 45.383,-45.383l218.06,0c25.062,0 45.383,20.32 45.383,45.383l0,76.84c51.523,-77.322 128.094,-137.002 291.125,-137.002c361.021,0 358.955,337.284 358.955,522.604l0,426.273Z" style="fill:#181717;fill-rule:nonzero;"/></svg>